<svg version="1.1" xmlns:cc="http://creativecommons.org/ns#" xmlns:dc="http://purl.org/dc/elements/1.1/" xmlns:rdf="http://www.w3.org/1999/02/22-rdf-syntax-ns#" xmlns="http://www.w3.org/2000/svg" xmlns:xlink="http://www.w3.org/1999/xlink" x="0px" y="0px" viewBox="0 0 1024 768" xml:space="preserve">
<defs>
<filter id="f1" x="-50%" y="-50%" width="200%" height="200%">
  <feGaussianBlur id="blur1" in="SourceGraphic" stdDeviation="5" />
</filter>
</defs>
<path id="shadow" d="m374.32 322.92l-15.11 5.04v48.89c0 3.93 0.8 7.66 2.21 11.19 1.51 3.42 3.53 6.55 6.15 9.17 2.72 2.62 5.75 4.74 9.17 6.15 3.53 1.51 7.36 2.21 11.19 2.21s7.66-0.7 11.19-2.21c3.43-1.51 6.45-3.53 9.17-6.15 2.63-2.62 4.64-5.75 6.15-9.17 1.52-3.53 2.22-7.26 2.22-11.19 0-3.83-0.7-7.66-2.22-11.19-1.51-3.43-3.52-6.45-6.15-9.07-2.62-2.73-5.74-4.74-9.17-6.15-3.53-1.51-7.26-2.32-11.19-2.32-3.83 0-7.66 0.81-11.19 2.32-0.8 0.3-1.61 0.7-2.42 1.1v-28.62zm287.82 0v28.73l-2.42-1.21c-3.63-1.41-7.36-2.22-11.19-2.22-3.93 0-7.66 0.81-11.19 2.22-3.43 1.51-6.55 3.53-9.17 6.15-2.62 2.72-4.74 5.74-6.15 9.17-1.51 3.53-2.22 7.36-2.22 11.19s0.71 7.66 2.22 11.19c1.41 3.42 3.53 6.45 6.15 9.17 2.62 2.62 5.74 4.64 9.17 6.15 3.53 1.41 7.26 2.22 11.19 2.22 3.83 0 7.56-0.81 11.19-2.22 3.33-1.51 6.45-3.53 9.07-6.15 2.62-2.72 4.74-5.75 6.15-9.17 1.51-3.53 2.32-7.36 2.32-11.19v-48.99l-15.12-5.04zm-396.26 2.72c-6.75 0-13.1 2.22-17.84 6.35-4.84 4.23-7.56 9.88-7.56 16.13 0 3.53 0.81 6.85 2.22 9.67 1.41 2.63 3.22 4.84 5.84 6.86 4.44 3.53 9.88 5.74 15.63 7.86 0.3 0.1 0.7 0.2 1.11 0.41 4.13 1.51 7.66 2.92 9.87 4.53 2.02 1.41 2.73 3.03 2.73 5.44 0 2.22-0.81 3.94-2.62 5.25-1.92 1.41-5.04 2.21-8.57 2.21-3.03 0-6.15-0.7-9.07-2.11-3.03-1.41-5.85-3.63-7.97-6.25l-2.62-3.33-10.48 12.4 2.12 2.32c7.35 7.86 17.33 12.19 27.92 12.19 7.15 0 13.91-2.11 18.85-5.84 2.72-2.12 4.84-4.64 6.35-7.56 1.51-3.13 2.32-6.55 2.32-10.28 0-6.86-2.32-12.2-7.26-16.13-4.03-3.43-9.48-5.55-15.22-7.76-0.61-0.31-1.31-0.51-1.92-0.81-4.13-1.51-7.96-3.02-10.38-4.64-1.61-1.21-2.72-2.52-2.72-4.84 0.1-5.14 5.04-6.95 9.27-6.95 4.54 0 9.98 2.32 15.02 6.45l2.82 2.32 9.68-12.6-2.72-2.12c-7.46-6.05-16.03-9.17-24.8-9.17zm246.43 0.71v78.62h15.93v-45.16l17.84 30.74h9.98l17.94-30.84v45.26h15.83v-78.62h-14.32l-24.39 42.84-24.4-42.84h-14.41zm101.83 20.46l-15.22 5.04v53.12h15.22v-58.16zm86.43 0l-15.22 5.04v53.12h15.22v-58.16zm-246.48 0.6c-4.44 0-8.67 0.81-12.71 2.52-3.93 1.72-7.45 4.03-10.38 7.06-3.02 3.02-5.44 6.55-7.05 10.38-1.72 4.03-2.62 8.37-2.62 12.8v24.8h15.12v-24.8c0-9.78 7.96-17.64 17.64-17.64v-15.12zm-128.63 0.71c-3.93 0-7.66 0.81-11.19 2.32-3.42 1.41-6.55 3.53-9.17 6.15s-4.74 5.74-6.15 9.07c-1.51 3.63-2.22 7.36-2.22 11.19 0 3.93 0.71 7.66 2.22 11.19 1.41 3.42 3.53 6.55 6.15 9.17s5.75 4.74 9.17 6.15c3.53 1.51 7.26 2.21 11.19 2.21 3.83 0 7.56-0.7 11.19-2.21 3.43-1.41 6.45-3.53 9.07-6.15s4.74-5.75 6.15-9.17c1.51-3.53 2.32-7.26 2.32-11.19 0-3.83-0.81-7.56-2.32-11.19-1.41-3.43-3.53-6.45-6.15-9.07s-5.74-4.74-9.07-6.15c-3.63-1.51-7.36-2.32-11.19-2.32zm409.4 0.1c-3.93 0-7.66 0.81-11.19 2.32-3.43 1.41-6.56 3.52-9.18 6.15-2.62 2.62-4.73 5.64-6.14 9.07-1.52 3.63-2.22 7.36-2.22 11.19 0 3.93 0.7 7.66 2.22 11.19 1.41 3.42 3.52 6.55 6.14 9.17s5.75 4.74 9.18 6.15c3.53 1.51 7.26 2.22 11.19 2.22 4.43 0 8.97-1.01 12.9-3.03v2.32h15.12v-56.75h-15.12v3.12c-3.93-2.01-8.37-3.12-12.9-3.12zm-255.58 0.3c-7.56 0-14.72 2.92-20.07 8.27-5.34 5.44-8.36 12.5-8.36 20.16 0 7.56 3.02 14.71 8.36 20.06 5.35 5.34 12.51 8.26 20.07 8.26 4.03 0 7.86-0.8 11.49-2.32 3.42-1.61 6.55-3.73 9.17-6.55l-10.58-10.08c-2.63 2.82-6.25 4.34-10.08 4.34-4.94 0-9.18-2.52-11.7-6.45h40.12v-7.26c0-7.66-2.92-14.72-8.37-20.16-5.34-5.35-12.49-8.27-20.05-8.27zm0 14.62c4.93 0 9.27 2.62 11.69 6.45h-23.39c2.52-3.83 6.76-6.45 11.7-6.45zm-153.82 0.1c7.46 0 13.61 6.15 13.61 13.61 0 7.56-6.15 13.61-13.61 13.61-7.56 0-13.61-6.05-13.61-13.61 0-7.46 6.05-13.61 13.61-13.61zm62.47 0c7.46 0 13.61 6.15 13.61 13.61 0 7.56-6.15 13.61-13.61 13.61s-13.61-6.05-13.61-13.61c0-7.46 6.15-13.61 13.61-13.61zm260.6 0.1c7.46 0 13.61 6.15 13.61 13.61s-6.15 13.6-13.61 13.6c-7.56 0-13.61-6.14-13.61-13.6s6.05-13.61 13.61-13.61zm86.33 0c2.62 0 5.14 0.81 7.35 2.22 2.12 1.41 3.84 3.32 4.94 5.64 0.81 1.82 1.21 3.73 1.21 5.85 0 2.32-0.6 4.73-1.81 6.75-1.11 2.02-2.82 3.73-4.84 4.94-2.12 1.21-4.43 1.81-6.85 1.81-7.56 0-13.61-6.04-13.61-13.6 0-7.46 6.05-13.61 13.61-13.61zm-94.08 54.51l-4.82 1.6v0.34 19.84h4.82v-21.78zm-390.07 0.62c-1.42 0-2.82 0.3-4.13 0.86-1.28 0.53-2.41 1.29-3.4 2.28-0.97 0.96-1.74 2.11-2.28 3.37-0.56 1.32-0.83 2.72-0.83 4.16s0.27 2.84 0.83 4.16c0.54 1.26 1.32 2.38 2.27 3.37h0.01v0.01c0.99 0.95 2.11 1.73 3.4 2.27 1.32 0.56 2.72 0.83 4.13 0.83 3.56 0 6.87-1.74 8.85-4.69l0.26-0.4-4.12-2.79-0.27 0.4c-1.06 1.58-2.83 2.5-4.72 2.5-1.51 0-2.92-0.58-4.01-1.65-1.06-1.06-1.65-2.5-1.65-4.01s0.59-2.95 1.65-4.01c1.09-1.09 2.5-1.68 4.01-1.68 1.92 0 3.68 0.94 4.72 2.52l0.27 0.41 4.15-2.76-0.27-0.41c-1.98-2.97-5.31-4.74-8.87-4.74zm343.38 1.17l-4.8 1.6v10.25c0 1.14 0.21 2.25 0.65 3.29 0.43 1 1.03 1.9 1.82 2.66v0.01c0.76 0.75 1.65 1.37 2.66 1.78 1.03 0.44 2.12 0.65 3.26 0.65h0.48v-4.8h-0.48c-2 0-3.59-1.59-3.59-3.59v-2.54h4.07v-4.54h-4.07v-4.77zm163.55 0l-4.8 1.6v10.25c0 1.14 0.21 2.25 0.65 3.29 0.43 1 1.03 1.9 1.82 2.66 0.76 0.76 1.65 1.38 2.66 1.79 1.03 0.44 2.12 0.65 3.26 0.65h0.48v-4.8h-0.48c-2 0-3.59-1.59-3.59-3.59v-2.54h4.07v-4.54h-4.07v-4.77zm-265.09 0.14l-0.16 0.44c-0.14 0.39-0.33 0.68-0.51 0.86-0.19 0.17-0.35 0.23-0.52 0.23-0.36 0-0.81-0.31-1.37-0.66l-0.02-0.01c-0.58-0.39-1.31-0.81-2.32-0.81-0.78 0-1.46 0.3-1.98 0.81s-0.88 1.21-1.14 2.03l-0.13 0.41 2.19 0.97 0.18-0.48c0.14-0.4 0.33-0.7 0.51-0.87 0.18-0.18 0.35-0.25 0.57-0.25 0.3 0 0.72 0.21 1.22 0.54 0.65 0.44 1.47 1 2.52 1 0.7 0 1.36-0.32 1.87-0.85 0.52-0.53 0.91-1.28 1.15-2.2l0.12-0.43-2.18-0.73zm-101.57 3.93l-4.82 1.6v0.35 13.97h4.82v-15.92zm158 0l-4.82 1.6v0.35 13.97h4.82v-15.92zm110.05 0l-4.82 1.6v0.35 13.97h4.82v-15.92zm-380.99 0.52c-1.06 0-2.08 0.22-3.03 0.63-0.93 0.38-1.77 0.95-2.48 1.66s-1.28 1.55-1.67 2.46c-0.41 0.98-0.6 1.99-0.6 3.03 0 1.05 0.19 2.07 0.61 3.03 0.38 0.93 0.95 1.77 1.66 2.48 0.7 0.71 1.55 1.28 2.48 1.66 0.96 0.41 1.97 0.6 3.03 0.6 1.03 0 2.04-0.19 3.02-0.6 0.94-0.38 1.76-0.96 2.46-1.66 0.71-0.71 1.28-1.56 1.67-2.49 0.4-0.95 0.62-1.96 0.62-3.02 0-1.04-0.22-2.05-0.62-3.03-0.39-0.93-0.96-1.75-1.67-2.46s-1.55-1.28-2.45-1.66h-0.01c-0.97-0.41-1.98-0.63-3.02-0.63zm238.85 0c-1.06 0-2.08 0.22-3.03 0.63-0.93 0.38-1.77 0.95-2.48 1.66s-1.28 1.55-1.67 2.46c-0.41 0.98-0.6 1.99-0.6 3.03 0 1.05 0.19 2.07 0.6 3.03 0.39 0.93 0.96 1.77 1.67 2.48s1.55 1.28 2.48 1.66c0.96 0.41 1.97 0.6 3.03 0.6 1.03 0 2.04-0.19 3.02-0.6 0.94-0.38 1.76-0.96 2.46-1.66 0.71-0.71 1.28-1.56 1.67-2.49 0.4-0.95 0.62-1.96 0.62-3.02 0-1.04-0.22-2.05-0.62-3.03-0.39-0.93-0.96-1.75-1.67-2.46s-1.55-1.28-2.45-1.66h-0.01c-0.97-0.41-1.98-0.63-3.02-0.63zm162.19 0c-2.04 0-3.96 0.8-5.41 2.24-1.44 1.45-2.24 3.39-2.24 5.41 0 2.04 0.8 3.99 2.24 5.43 0.88 0.88 1.93 1.51 3.07 1.88l-3.28 3.43 0.35 0.33c1.42 1.37 3.3 2.13 5.27 2.13 2.05 0 3.97-0.82 5.41-2.26 1.45-1.43 2.24-3.37 2.24-5.41v-5.53c0-2.02-0.79-3.96-2.24-5.41-1.44-1.44-3.36-2.24-5.41-2.24zm-380.85 0.03v15.37h4.8v-8.52c0-1.02 0.83-1.85 1.85-1.85 0.99 0 1.83 0.83 1.83 1.85v8.52h4.79v-8.52c0-1.02 0.84-1.85 1.85-1.85 0.99 0 1.83 0.83 1.83 1.85v8.52h4.8v-8.52c0-1.76-0.69-3.45-1.94-4.69-1.26-1.27-2.92-1.96-4.69-1.96-1.6 0-3.05 0.62-4.24 1.61-1.2-0.99-2.65-1.61-4.23-1.61-0.64 0-1.25 0.19-1.85 0.37v-0.57h-4.8zm61.05 0v6.75c-0.02 0.2-0.02 0.4-0.02 0.56v0.48h0.02v7.58h4.8v-8.36c0.15-1.04 1.04-1.83 2.11-1.83 1.17 0 2.13 0.96 2.13 2.13v8.06h4.8v-8.06c0-1.84-0.72-3.58-2.03-4.89-1.3-1.32-3.07-2.04-4.9-2.04-0.73 0-1.43 0.22-2.11 0.44v-0.82h-4.8zm51.98 0c-1.03 0-2.07 0.21-3.02 0.62-0.94 0.39-1.75 0.96-2.48 1.66l-0.01 0.01c-0.71 0.71-1.25 1.55-1.66 2.44v0.01l-0.01 0.02c-0.37 0.96-0.59 1.97-0.59 3.01 0 1.07 0.22 2.08 0.59 3.02l0.01 0.01v0.01c0.41 0.91 0.95 1.76 1.66 2.47h0.01v0.01c0.72 0.7 1.54 1.27 2.47 1.66 0.96 0.41 2 0.6 3.03 0.6 2.57 0 4.97-1.26 6.41-3.36l0.28-0.4-3.97-2.71-0.27 0.39c-0.55 0.79-1.45 1.28-2.45 1.28-1.63 0-2.97-1.32-2.97-2.98 0-1.63 1.34-2.97 2.97-2.97 0.97 0 1.88 0.48 2.45 1.28l0.28 0.39 3.91-2.79-0.28-0.39c-0.71-0.97-1.63-1.82-2.73-2.39-1.09-0.58-2.37-0.9-3.63-0.9zm25.3 0c-1.06 0-2.07 0.21-3.02 0.62-0.94 0.39-1.78 0.96-2.49 1.67-0.7 0.7-1.28 1.52-1.66 2.46-0.41 0.98-0.6 1.99-0.6 3.02 0 1.06 0.19 2.07 0.6 3.03 0.38 0.93 0.95 1.78 1.66 2.48 0.71 0.71 1.55 1.28 2.48 1.67 0.96 0.41 1.98 0.6 3.03 0.6 0.96 0 1.9-0.31 2.8-0.66v0.48h4.8v-15.37h-0.48-4.32v0.67c-0.89-0.35-1.81-0.67-2.8-0.67zm27.5 0c-1.04 0-2.07 0.21-3.02 0.62-0.94 0.39-1.76 0.96-2.48 1.66h-0.01v0.01c-0.71 0.71-1.25 1.55-1.66 2.44v0.01l-0.01 0.02c-0.37 0.96-0.59 1.97-0.59 3.01 0 1.07 0.22 2.08 0.59 3.02l0.01 0.01v0.01c0.4 0.91 0.95 1.76 1.66 2.47l0.01 0.01c0.72 0.7 1.54 1.27 2.47 1.66 0.42 0.17 0.88 0.16 1.31 0.26l-0.16 0.36-0.05 1.36h0.5c0.66 0 1.12 0.12 1.36 0.27 0.25 0.14 0.28 0.24 0.28 0.33 0 0.16-0.04 0.21-0.2 0.3-0.17 0.1-0.45 0.16-0.75 0.16-0.49 0-0.81-0.07-1.08-0.15l-0.63-0.21v2.18l0.39 0.08c0.39 0.08 0.87 0.16 1.53 0.16 1.02 0 1.81-0.23 2.37-0.67s0.84-1.09 0.84-1.75c0-0.74-0.28-1.39-0.78-1.83-0.31-0.27-0.78-0.31-1.21-0.42 2.29-0.21 4.42-1.29 5.72-3.19l0.28-0.4-3.97-2.71-0.27 0.39c-0.55 0.79-1.45 1.28-2.45 1.28-1.63 0-2.97-1.32-2.97-2.98 0-1.63 1.34-2.97 2.97-2.97 0.97 0 1.88 0.48 2.46 1.28l0.27 0.39 3.91-2.79-0.28-0.39c-0.71-0.97-1.63-1.82-2.73-2.39-1.09-0.58-2.37-0.9-3.63-0.9zm25.3 0c-1.06 0-2.07 0.21-3.02 0.62-0.93 0.39-1.78 0.96-2.49 1.67-0.7 0.7-1.28 1.52-1.66 2.46-0.41 0.98-0.6 1.99-0.6 3.02 0 1.05 0.19 2.07 0.6 3.03 0.38 0.93 0.95 1.77 1.66 2.48s1.55 1.28 2.48 1.67c0.96 0.41 1.98 0.6 3.03 0.6 0.96 0 1.9-0.31 2.8-0.66v0.48h4.8v-15.37h-0.48-4.32v0.67c-0.89-0.35-1.81-0.67-2.8-0.67zm72.92 0v6.75c-0.02 0.2-0.02 0.4-0.02 0.56v0.48h0.02v7.58h4.8v-8.36c0.15-1.04 1.04-1.83 2.11-1.83 1.17 0 2.13 0.96 2.13 2.13v8.06h4.8v-8.06c0-1.84-0.72-3.58-2.03-4.89-1.3-1.32-3.07-2.04-4.9-2.04-0.73 0-1.43 0.22-2.11 0.44v-0.82h-4.8zm163.55 0v6.75c-0.02 0.2-0.03 0.4-0.03 0.56v0.48h0.03v7.58h4.8v-8.36c0.15-1.04 1.04-1.83 2.11-1.83 1.17 0 2.13 0.96 2.13 2.13v8.06h4.8v-8.06c0-1.84-0.72-3.58-2.03-4.89-1.3-1.32-3.06-2.04-4.9-2.04-0.73 0-1.42 0.22-2.11 0.44v-0.82h-4.8zm-109.63 0.07c-2.04 0-3.99 0.8-5.43 2.24v0.01c-1.44 1.46-2.27 3.38-2.27 5.45 0 2.05 0.82 3.99 2.27 5.43 1.44 1.45 3.39 2.25 5.43 2.25 1.09 0 2.13-0.22 3.1-0.63h0.01l0.01-0.01c0.92-0.43 1.77-1 2.48-1.77l0.32-0.35-2.72-2.59h4.5v-2.33c0-2.07-0.79-3.99-2.26-5.46-1.45-1.44-3.39-2.24-5.44-2.24zm90 0c-2.04 0-3.99 0.8-5.43 2.24v0.01c-1.44 1.46-2.27 3.38-2.27 5.45 0 2.05 0.82 3.99 2.27 5.43 1.44 1.45 3.39 2.25 5.43 2.25 1.09 0 2.13-0.22 3.1-0.63h0.01l0.01-0.01c0.92-0.43 1.77-1 2.48-1.77l0.32-0.35-2.72-2.59h4.5v-2.33c0-2.07-0.79-3.99-2.26-5.46-1.45-1.44-3.39-2.24-5.44-2.24zm73.55 0c-2.04 0-3.99 0.8-5.43 2.24l-0.01 0.01c-1.43 1.46-2.26 3.38-2.26 5.45 0 2.05 0.82 3.99 2.27 5.43 1.44 1.45 3.39 2.25 5.43 2.25 1.09 0 2.13-0.22 3.11-0.63h0.01l0.01-0.01c0.91-0.43 1.76-1 2.47-1.77l0.32-0.35-2.72-2.59h4.5v-2.33c0-2.07-0.8-3.99-2.26-5.46-1.45-1.44-3.39-2.24-5.44-2.24zm-447.2 0.08v8.49c0 1.84 0.71 3.58 2.01 4.87 1.29 1.3 3.03 2.01 4.87 2.01 1.81 0 3.55-0.71 4.84-2 1.32-1.3 2.04-3.04 2.04-4.88v-8.49h-4.8v8.49c0 1.18-0.93 2.08-2.08 2.08-1.18 0-2.08-0.9-2.08-2.08v-8.49h-4.8zm283.65 4.59c0.7 0 1.28 0.29 1.79 0.68h-3.57c0.51-0.39 1.09-0.68 1.78-0.68zm90 0c0.7 0 1.28 0.29 1.79 0.68h-3.57c0.51-0.39 1.09-0.68 1.78-0.68zm73.55 0c0.7 0 1.28 0.29 1.79 0.68h-3.57c0.51-0.39 1.09-0.68 1.78-0.68zm-501.71 0.03c1.63 0 2.97 1.35 2.97 2.98 0 1.66-1.34 2.97-2.97 2.97-1.66 0-2.98-1.31-2.98-2.97 0-1.64 1.32-2.98 2.98-2.98zm238.85 0c1.63 0 2.98 1.35 2.98 2.98 0 1.66-1.35 2.97-2.98 2.97-1.67 0-2.98-1.31-2.98-2.97 0-1.64 1.32-2.98 2.98-2.98zm162.19 0c1.59 0 2.87 1.27 2.88 2.85-0.03 1.58-1.3 2.87-2.88 2.87s-2.85-1.29-2.85-2.87c0-1.56 1.27-2.85 2.85-2.85zm-242.52 0.03c0.57 0 1.11 0.17 1.61 0.48 0.46 0.31 0.84 0.73 1.08 1.23 0.17 0.4 0.26 0.81 0.26 1.29 0 0.5-0.13 1.04-0.39 1.47l-0.01 0.01c-0.23 0.43-0.61 0.81-1.05 1.07-0.47 0.27-0.97 0.4-1.5 0.4-1.66 0-2.97-1.31-2.97-2.98 0-1.63 1.31-2.97 2.97-2.97zm52.8 0c0.57 0 1.11 0.17 1.61 0.48 0.46 0.31 0.84 0.73 1.08 1.23 0.18 0.4 0.26 0.81 0.26 1.29 0 0.5-0.13 1.04-0.39 1.47l-0.01 0.01c-0.24 0.43-0.61 0.81-1.05 1.07-0.47 0.27-0.97 0.4-1.5 0.4-1.66 0-2.97-1.31-2.97-2.98 0-1.63 1.31-2.97 2.97-2.97zm125.05 5.3h3.62c-0.53 0.4-1.14 0.67-1.83 0.67-0.7 0-1.28-0.28-1.79-0.67zm90 0h3.62c-0.53 0.4-1.14 0.67-1.83 0.67-0.7 0-1.28-0.28-1.79-0.67zm73.55 0h3.62c-0.53 0.4-1.14 0.67-1.83 0.67-0.7 0-1.28-0.28-1.79-0.67zm-96.7 4.67c-0.52 0.7-1.24 1.23-2.18 1.23-0.76 0-1.42-0.26-1.98-0.77l-0.3-0.28c0.73 0.22 1.5 0.34 2.28 0.34 0.76 0 1.46-0.3 2.18-0.52z" transform="translate(3 5)" fill="#000000" stroke="#000000" stroke-width="2" filter="url(#f1)" opacity="0.6" />
<animate xlink:href="#blur1" attributeName="stdDeviation" from="5" to="5" dur="4s" begin="0s" values="5; 30; 5" keyTimes="0; 0.5; 1" calcMode="spline"
						keySplines=".73 .18 .24 .87;
									.73 .18 .24 .87;"
									repeatCount="indefinite" fill="freeze" />
<animate xlink:href="#shadow" attributeName="opacity" from="0.6" to="0.1" dur="4s" begin="0s" values="0.6; 0.1; 0.6" keyTimes="0; 0.5; 1" repeatCount="indefinite" fill="freeze" />
<animateTransform xlink:href="#logo-hover"
						attributeName="transform"
                          attributeType="XML"
                          type="translate"
                          from="0 0"
                          to="0 0"
						  values="0 0; 0 -20; 0 0"
						  calcMode="spline"
						keySplines=".73 .18 .24 .87;
									.73 .18 .24 .87;"
                          dur="4s"
                          repeatCount="indefinite"
	  />
<g id="logo-hover">

 
 <g id="logo-group" fill="#fff" stroke-miterlimit="2" transform="translate(-2.24 5.76) scale(1)">
  <path id="path303997" style="font-variant-ligatures:none" d="m252.95 433.54c3.4048 0 6.5536-1.664 8.448-4.48l-3.328-2.2528c-1.152 1.7152-3.072 2.7136-5.12 2.7136-1.6384 0-3.1744-0.64-4.352-1.792-1.152-1.152-1.792-2.7136-1.792-4.352s0.64-3.2 1.792-4.352c1.1776-1.1776 2.7136-1.8176 4.352-1.8176 2.0736 0 3.9936 1.024 5.12 2.7392l3.3536-2.2272c-1.8944-2.8416-5.0688-4.5312-8.4736-4.5312-1.3568 0-2.688 0.2816-3.9424 0.8192-1.2288 0.512-2.304 1.2288-3.2512 2.176-0.9216 0.9216-1.664 2.0224-2.176 3.2256-0.5376 1.2544-0.7936 2.5856-0.7936 3.968s0.256 2.7136 0.7936 3.968c0.512 1.2032 1.2544 2.2784 2.176 3.2256 0.9472 0.9216 2.0224 1.664 3.2512 2.176 1.2544 0.5376 2.5856 0.7936 3.9424 0.7936z" stroke="#fff" stroke-width="0.96"/>
  <path id="path303999" style="font-variant-ligatures:none" d="m280.28 433.54c0.9728 0 1.92-0.1792 2.8416-0.5632 0.8704-0.3584 1.6384-0.896 2.304-1.5616s1.2032-1.4592 1.5616-2.3296c0.384-0.896 0.5888-1.8432 0.5888-2.8416 0-0.9728-0.2048-1.92-0.5888-2.8416-0.3584-0.8704-0.896-1.6384-1.5616-2.304s-1.4592-1.2032-2.304-1.5616c-0.9216-0.384-1.8688-0.5888-2.8416-0.5888-0.9984 0-1.9456 0.2048-2.8416 0.5888-0.8704 0.3584-1.664 0.896-2.3296 1.5616s-1.2032 1.4592-1.5616 2.304c-0.384 0.9216-0.5632 1.8688-0.5632 2.8416 0 0.9984 0.1792 1.9456 0.5632 2.8416 0.3584 0.8704 0.896 1.664 1.5616 2.3296s1.4592 1.2032 2.3296 1.5616c0.896 0.384 1.8432 0.5632 2.8416 0.5632zm0-10.752c1.8944 0 3.456 1.5616 3.456 3.456 0 1.92-1.5616 3.456-3.456 3.456-1.92 0-3.456-1.536-3.456-3.456 0-1.8944 1.536-3.456 3.456-3.456z" stroke="#fff" stroke-width="0.96"/>
  <path id="path304001" style="font-variant-ligatures:none" d="m319.95 421c-1.1776-1.1776-2.7136-1.8176-4.352-1.8176-1.6128 0-3.0976 0.6144-4.2496 1.6896-1.152-1.0752-2.6368-1.6896-4.224-1.6896-0.8192 0-1.6128 0.1536-2.3296 0.4608v-0.6656h-3.84v14.413h3.84v-8.0384c0-1.28 1.0496-2.3296 2.3296-2.3296 1.2544 0 2.304 1.0496 2.304 2.3296v8.0384h3.84v-8.0384c0-1.28 1.0496-2.3296 2.3296-2.3296 1.2544 0 2.304 1.0496 2.304 2.3296v8.0384h3.84v-8.0384c0-1.6384-0.64-3.2-1.792-4.352z" stroke="#fff" stroke-width="0.96"/>
  <path id="path304003" style="font-variant-ligatures:none" d="m341.67 433.54c1.6896 0 3.3024-0.6656 4.5056-1.8688 1.2288-1.2032 1.8944-2.816 1.8944-4.5312v-8.0128h-3.84v8.0128c0 1.4336-1.152 2.56-2.56 2.56-1.4336 0-2.56-1.1264-2.56-2.56v-8.0128h-3.84v8.0128c0 1.7152 0.6656 3.328 1.8688 4.5312s2.816 1.8688 4.5312 1.8688z" stroke="#fff" stroke-width="0.96"/>
  <path id="path304005" style="font-variant-ligatures:none" d="m372.98 421.25c-1.2032-1.2288-2.8416-1.8944-4.5568-1.8944-0.896 0-1.792 0.1792-2.5856 0.5376v-0.9216h-3.84v6.272c-0.0256 0.1792-0.0256 0.384-0.0256 0.5632h0.0256v7.5776h3.84v-7.936c0.1792-1.28 1.28-2.2528 2.5856-2.2528 1.4336 0 2.6112 1.1776 2.6112 2.6112v7.5776h3.84v-7.5776c0-1.7152-0.6656-3.328-1.8944-4.5568z" stroke="#fff" stroke-width="0.96"/>
  <path id="path304007" style="font-variant-ligatures:none" d="m388.88 419.9v13.491h3.8656v-14.771z" stroke="#fff" stroke-width="0.96"/>
  <path id="path304009" style="font-variant-ligatures:none" d="m413.5 433.57c2.4064 0 4.6592-1.1776 6.016-3.1488l-3.1744-2.176c-0.64 0.9216-1.6896 1.4848-2.8416 1.4848-1.8944 0-3.456-1.536-3.456-3.456 0-1.8944 1.5616-3.456 3.456-3.456 1.1264 0 2.176 0.5632 2.8416 1.4848l3.1232-2.2272c-0.6656-0.9216-1.536-1.7152-2.56-2.2528s-2.2272-0.8448-3.4048-0.8448c-0.9728 0-1.9456 0.2048-2.8416 0.5888-0.8704 0.3584-1.6384 0.896-2.3296 1.5616-0.6656 0.6656-1.1776 1.4592-1.5616 2.304-0.3584 0.9216-0.5632 1.8688-0.5632 2.8416 0 0.9984 0.2048 1.9456 0.5632 2.8416 0.384 0.8704 0.896 1.664 1.5616 2.3296 0.6912 0.6656 1.4592 1.2032 2.3296 1.5616 0.896 0.384 1.8688 0.5632 2.8416 0.5632z" stroke="#fff" stroke-width="0.96"/>
  <path id="path304011" style="font-variant-ligatures:none" d="m445.92 418.98h-3.84v0.7936c-0.9984-0.512-2.1248-0.7936-3.2768-0.7936-0.9984 0-1.9456 0.2048-2.8416 0.5888-0.8704 0.3584-1.664 0.896-2.3296 1.5616s-1.2032 1.4336-1.5616 2.304c-0.384 0.9216-0.5632 1.8688-0.5632 2.8416 0 0.9984 0.1792 1.9456 0.5632 2.8416 0.3584 0.8704 0.896 1.664 1.5616 2.3296s1.4592 1.2032 2.3296 1.5616c0.896 0.384 1.8432 0.5632 2.8416 0.5632 1.1264 0 2.2784-0.256 3.2768-0.768v0.5888h3.84zm-5.376 10.291c-0.5376 0.3072-1.1264 0.4608-1.7408 0.4608-1.92 0-3.456-1.536-3.456-3.456 0-1.8944 1.536-3.456 3.456-3.456 0.6656 0 1.3056 0.2048 1.8688 0.5632 0.5376 0.3584 0.9728 0.8448 1.2544 1.4336 0.2048 0.4608 0.3072 0.9472 0.3072 1.4848 0 0.5888-0.1536 1.2032-0.4608 1.7152-0.2816 0.512-0.7168 0.9472-1.2288 1.2544z" stroke="#fff" stroke-width="0.96"/>
  <path id="path304013" style="font-variant-ligatures:none" d="m466.3 433.57c2.4064 0 4.6592-1.1776 6.016-3.1488l-3.1744-2.176c-0.64 0.9216-1.6896 1.4848-2.8416 1.4848-1.8944 0-3.456-1.536-3.456-3.456 0-1.8944 1.5616-3.456 3.456-3.456 1.1264 0 2.176 0.5632 2.8416 1.4848l3.1232-2.2272c-0.6656-0.9216-1.536-1.7152-2.56-2.2528s-2.2272-0.8448-3.4048-0.8448c-0.9728 0-1.9456 0.2048-2.8416 0.5888-0.8704 0.3584-1.6384 0.896-2.3296 1.5616-0.6656 0.6656-1.1776 1.4592-1.5616 2.304-0.3584 0.9216-0.5632 1.8688-0.5632 2.8416 0 0.9984 0.2048 1.9456 0.5632 2.8416 0.384 0.8704 0.896 1.664 1.5616 2.3296 0.6912 0.6656 1.4592 1.2032 2.3296 1.5616 0.896 0.384 1.8688 0.5632 2.8416 0.5632zm-0.5376 4.5056c1.8944 0 2.7392-0.8704 2.7392-1.9456 0-1.2544-0.896-1.9712-2.2528-2.0224v-0.0512l0.4352-0.9472h-1.3056l-0.4864 1.0752-0.0256 0.768c1.4336 0 2.1248 0.512 2.1248 1.0752 0 0.6656-0.7168 0.9472-1.4336 0.9472-0.5376 0-0.9216-0.0768-1.2288-0.1792v1.1264c0.384 0.0768 0.8192 0.1536 1.4336 0.1536z" stroke="#fff" stroke-width="0.96"/>
  <path id="path304015" style="font-variant-ligatures:none" d="m498.72 418.98h-3.84v0.7936c-0.9984-0.512-2.1248-0.7936-3.2768-0.7936-0.9984 0-1.9456 0.2048-2.8416 0.5888-0.8704 0.3584-1.664 0.896-2.3296 1.5616s-1.2032 1.4336-1.5616 2.304c-0.384 0.9216-0.5632 1.8688-0.5632 2.8416 0 0.9984 0.1792 1.9456 0.5632 2.8416 0.3584 0.8704 0.896 1.664 1.5616 2.3296s1.4592 1.2032 2.3296 1.5616c0.896 0.384 1.8432 0.5632 2.8416 0.5632 1.1264 0 2.2784-0.256 3.2768-0.768v0.5888h3.84zm-5.376 10.291c-0.5376 0.3072-1.1264 0.4608-1.7408 0.4608-1.92 0-3.456-1.536-3.456-3.456 0-1.8944 1.536-3.456 3.456-3.456 0.6656 0 1.3056 0.2048 1.8688 0.5632 0.5376 0.3584 0.9728 0.8448 1.2544 1.4336 0.2048 0.4608 0.3072 0.9472 0.3072 1.4848 0 0.5888-0.1536 1.2032-0.4608 1.7152-0.2816 0.512-0.7168 0.9472-1.2288 1.2544zm0.4864-11.52c1.1264 0 2.0992-0.9728 2.56-2.688l-1.3056-0.4352c-0.3328 0.896-0.8704 1.408-1.4848 1.408-0.5888 0-1.1008-0.4096-1.6384-0.7424-0.5632-0.384-1.1776-0.7424-2.0736-0.7424-1.3056 0-2.176 0.9728-2.6624 2.5088l1.3312 0.5888c0.3328-0.896 0.8448-1.4336 1.536-1.4336 0.4864 0 0.9728 0.2816 1.4848 0.6144 0.64 0.4352 1.3824 0.9216 2.2528 0.9216z" stroke="#fff" stroke-width="0.96"/>
  <path id="path304017" style="font-variant-ligatures:none" d="m519.13 433.54c0.9728 0 1.92-0.1792 2.8416-0.5632 0.8704-0.3584 1.6384-0.896 2.304-1.5616s1.2032-1.4592 1.5616-2.3296c0.384-0.896 0.5888-1.8432 0.5888-2.8416 0-0.9728-0.2048-1.92-0.5888-2.8416-0.3584-0.8704-0.896-1.6384-1.5616-2.304s-1.4592-1.2032-2.304-1.5616c-0.9216-0.384-1.8688-0.5888-2.8416-0.5888-0.9984 0-1.9456 0.2048-2.8416 0.5888-0.8704 0.3584-1.664 0.896-2.3296 1.5616s-1.2032 1.4592-1.5616 2.304c-0.384 0.9216-0.5632 1.8688-0.5632 2.8416 0 0.9984 0.1792 1.9456 0.5632 2.8416 0.3584 0.8704 0.896 1.664 1.5616 2.3296s1.4592 1.2032 2.3296 1.5616c0.896 0.384 1.8432 0.5632 2.8416 0.5632zm0-10.752c1.8944 0 3.456 1.5616 3.456 3.456 0 1.92-1.5616 3.456-3.456 3.456-1.92 0-3.456-1.536-3.456-3.456 0-1.8944 1.536-3.456 3.456-3.456z" stroke="#fff" stroke-width="0.96"/>
  <path id="path304019" style="font-variant-ligatures:none" d="m546.88 419.9v13.491h3.8656v-14.771z" stroke="#fff" stroke-width="0.96"/>
  <path id="path304021" style="font-variant-ligatures:none" d="m575.98 421.25c-1.2032-1.2288-2.8416-1.8944-4.5568-1.8944-0.896 0-1.792 0.1792-2.5856 0.5376v-0.9216h-3.84v6.272c-0.0256 0.1792-0.0256 0.384-0.0256 0.5632h0.0256v7.5776h3.84v-7.936c0.1792-1.28 1.28-2.2528 2.5856-2.2528 1.4336 0 2.6112 1.1776 2.6112 2.6112v7.5776h3.84v-7.5776c0-1.7152-0.6656-3.328-1.8944-4.5568z" stroke="#fff" stroke-width="0.96"/>
  <path id="path304023" style="font-variant-ligatures:none" d="m595.85 425.73v-3.0208h4.0704v-3.584h-4.0704v-4.5824l-3.84 1.28v9.9072c0 1.0752 0.2048 2.1248 0.6144 3.0976 0.4096 0.9472 0.9728 1.792 1.7152 2.5088 0.7168 0.7168 1.5616 1.3056 2.5088 1.6896 0.9728 0.4096 1.9968 0.6144 3.072 0.6144v-3.84c-2.2528 0-4.0704-1.8176-4.0704-4.0704z" stroke="#fff" stroke-width="0.96"/>
  <path id="path304025" style="font-variant-ligatures:none" d="m618.44 433.47c1.024 0 1.9968-0.2048 2.9184-0.5888 0.8704-0.4096 1.664-0.9472 2.3296-1.664l-2.688-2.56c-0.6656 0.7168-1.5872 1.1008-2.56 1.1008-1.2544 0-2.3296-0.64-2.9696-1.6384h10.189v-1.8432c0-1.9456-0.7424-3.7376-2.1248-5.12-1.3568-1.3568-3.1744-2.0992-5.0944-2.0992s-3.7376 0.7424-5.0944 2.0992c-1.3568 1.3824-2.1248 3.1744-2.1248 5.12 0 1.92 0.768 3.7376 2.1248 5.0944s3.1744 2.0992 5.0944 2.0992zm2.9696-9.0624h-5.9392c0.64-0.9728 1.7152-1.6384 2.9696-1.6384s2.3552 0.6656 2.9696 1.6384z" stroke="#fff" stroke-width="0.96"/>
  <path id="path304027" style="font-variant-ligatures:none" d="m638.68 414.04v19.354h3.8656v-20.634z" stroke="#fff" stroke-width="0.96"/>
  <path id="path304029" style="font-variant-ligatures:none" d="m656.93 419.9v13.491h3.8656v-14.771z" stroke="#fff" stroke-width="0.96"/>
  <path id="path304031" style="font-variant-ligatures:none" d="m686.39 421.05c-1.3568-1.3568-3.1488-2.0992-5.0688-2.0992s-3.712 0.7424-5.0688 2.0992-2.0992 3.1744-2.0992 5.0688c0 1.92 0.7424 3.7376 2.0992 5.0944s3.1488 2.0992 5.0688 2.0992c1.1264 0 2.2272-0.256 3.2256-0.768-0.4096 1.408-1.6896 2.432-3.2256 2.432-0.8704 0-1.664-0.3072-2.304-0.896l-2.6368 2.7648c1.3312 1.28 3.0976 1.9968 4.9408 1.9968 1.92 0 3.712-0.768 5.0688-2.1248 1.3568-1.3312 2.0992-3.1488 2.0992-5.0688v-5.5296c0-1.8944-0.7424-3.712-2.0992-5.0688zm-5.0688 8.4224c-1.8432 0-3.328-1.5104-3.328-3.3536 0-1.8176 1.4848-3.328 3.328-3.328s3.3536 1.4848 3.3536 3.328c-0.0256 1.8432-1.5104 3.3536-3.3536 3.3536z" stroke="#fff" stroke-width="0.96"/>
  <path id="path304033" style="font-variant-ligatures:none" d="m708.44 433.47c1.024 0 1.9968-0.2048 2.9184-0.5888 0.8704-0.4096 1.664-0.9472 2.3296-1.664l-2.688-2.56c-0.6656 0.7168-1.5872 1.1008-2.56 1.1008-1.2544 0-2.3296-0.64-2.9696-1.6384h10.189v-1.8432c0-1.9456-0.7424-3.7376-2.1248-5.12-1.3568-1.3568-3.1744-2.0992-5.0944-2.0992s-3.7376 0.7424-5.0944 2.0992c-1.3568 1.3824-2.1248 3.1744-2.1248 5.12 0 1.92 0.768 3.7376 2.1248 5.0944s3.1744 2.0992 5.0944 2.0992zm2.9696-9.0624h-5.9392c0.64-0.9728 1.7152-1.6384 2.9696-1.6384s2.3552 0.6656 2.9696 1.6384z" stroke="#fff" stroke-width="0.96"/>
  <path id="path304035" style="font-variant-ligatures:none" d="m739.53 421.25c-1.2032-1.2288-2.8416-1.8944-4.5568-1.8944-0.896 0-1.792 0.1792-2.5856 0.5376v-0.9216h-3.84v6.272c-0.0256 0.1792-0.0256 0.384-0.0256 0.5632h0.0256v7.5776h3.84v-7.936c0.1792-1.28 1.28-2.2528 2.5856-2.2528 1.4336 0 2.6112 1.1776 2.6112 2.6112v7.5776h3.84v-7.5776c0-1.7152-0.6656-3.328-1.8944-4.5568z" stroke="#fff" stroke-width="0.96"/>
  <path id="path304037" style="font-variant-ligatures:none" d="m759.4 425.73v-3.0208h4.0704v-3.584h-4.0704v-4.5824l-3.84 1.28v9.9072c0 1.0752 0.2048 2.1248 0.6144 3.0976 0.4096 0.9472 0.9728 1.792 1.7152 2.5088 0.7168 0.7168 1.5616 1.3056 2.5088 1.6896 0.9728 0.4096 1.9968 0.6144 3.072 0.6144v-3.84c-2.2528 0-4.0704-1.8176-4.0704-4.0704z" stroke="#fff" stroke-width="0.96"/>
  <path id="path304039" style="font-variant-ligatures:none" d="m781.99 433.47c1.024 0 1.9968-0.2048 2.9184-0.5888 0.8704-0.4096 1.664-0.9472 2.3296-1.664l-2.688-2.56c-0.6656 0.7168-1.5872 1.1008-2.56 1.1008-1.2544 0-2.3296-0.64-2.9696-1.6384h10.189v-1.8432c0-1.9456-0.7424-3.7376-2.1248-5.12-1.3568-1.3568-3.1744-2.0992-5.0944-2.0992s-3.7376 0.7424-5.0944 2.0992c-1.3568 1.3824-2.1248 3.1744-2.1248 5.12 0 1.92 0.768 3.7376 2.1248 5.0944s3.1744 2.0992 5.0944 2.0992zm2.9696-9.0624h-5.9392c0.64-0.9728 1.7152-1.6384 2.9696-1.6384s2.3552 0.6656 2.9696 1.6384z" stroke="#fff" stroke-width="0.96"/>
  <path id="path304042" style="font-variant-ligatures:normal" d="m268.83 399.81c7.1568 0 13.91-2.1168 18.85-5.8464 2.7216-2.1168 4.8384-4.6368 6.3504-7.56 1.512-3.1248 2.3184-6.552 2.3184-10.282 0-6.8544-2.3184-12.197-7.2576-16.128-4.032-3.4272-9.4752-5.544-15.221-7.7616-0.6048-0.3024-1.3104-0.504-1.9152-0.8064-4.1328-1.512-7.9632-3.024-10.382-4.6368-1.6128-1.2096-2.7216-2.52-2.7216-4.8384 0.1008-5.1408 5.04-6.9552 9.2736-6.9552 4.536 0 9.9792 2.3184 15.019 6.4512l2.8224 2.3184 9.6768-12.6-2.7216-2.1168c-7.4592-6.048-16.027-9.1728-24.797-9.1728-6.7536 0-13.104 2.2176-17.842 6.3504-4.8384 4.2336-7.56 9.8784-7.56 16.128 0 3.528 0.8064 6.8544 2.2176 9.6768 1.4112 2.6208 3.2256 4.8384 5.8464 6.8544 4.4352 3.528 9.8784 5.7456 15.624 7.8624 0.3024 0.1008 0.7056 0.2016 1.1088 0.4032 4.1328 1.512 7.6608 2.9232 9.8784 4.536 2.016 1.4112 2.7216 3.024 2.7216 5.4432 0 2.2176-0.8064 3.9312-2.6208 5.2416-1.9152 1.4112-5.04 2.2176-8.568 2.2176-3.024 0-6.1488-0.7056-9.072-2.1168-3.024-1.4112-5.8464-3.6288-7.9632-6.2496l-2.6208-3.3264-10.483 12.398 2.1168 2.3184c7.3584 7.8624 17.338 12.197 27.922 12.197z" stroke-width="0"/>
  <path id="path304044" style="font-variant-ligatures:normal" d="m327.7 399.81c3.8304 0 7.56-0.7056 11.189-2.2176 3.4272-1.4112 6.4512-3.528 9.072-6.1488s4.7376-5.7456 6.1488-9.1728c1.512-3.528 2.3184-7.2576 2.3184-11.189 0-3.8304-0.8064-7.56-2.3184-11.189-1.4112-3.4272-3.528-6.4512-6.1488-9.072s-5.7456-4.7376-9.072-6.1488c-3.6288-1.512-7.3584-2.3184-11.189-2.3184-3.9312 0-7.6608 0.8064-11.189 2.3184-3.4272 1.4112-6.552 3.528-9.1728 6.1488s-4.7376 5.7456-6.1488 9.072c-1.512 3.6288-2.2176 7.3584-2.2176 11.189 0 3.9312 0.7056 7.6608 2.2176 11.189 1.4112 3.4272 3.528 6.552 6.1488 9.1728s5.7456 4.7376 9.1728 6.1488c3.528 1.512 7.2576 2.2176 11.189 2.2176zm0-42.336c7.4592 0 13.608 6.1488 13.608 13.608 0 7.56-6.1488 13.608-13.608 13.608-7.56 0-13.608-6.048-13.608-13.608 0-7.4592 6.048-13.608 13.608-13.608z" stroke-width="0"/>
  <path id="path304046" style="font-variant-ligatures:normal" d="m418.9 371.09c0-3.8304-0.7056-7.6608-2.2176-11.189-1.512-3.4272-3.528-6.4512-6.1488-9.072-2.6208-2.7216-5.7456-4.7376-9.1728-6.1488-3.528-1.512-7.2576-2.3184-11.189-2.3184-3.8304 0-7.6608 0.8064-11.189 2.3184-0.8064 0.3024-1.6128 0.7056-2.4192 1.1088v-28.627l-15.12 5.04v48.888c0 3.9312 0.8064 7.6608 2.2176 11.189 1.512 3.4272 3.528 6.552 6.1488 9.1728 2.7216 2.6208 5.7456 4.7376 9.1728 6.1488 3.528 1.512 7.3584 2.2176 11.189 2.2176 3.8304 0 7.6608-0.7056 11.189-2.2176 3.4272-1.512 6.4512-3.528 9.1728-6.1488 2.6208-2.6208 4.6368-5.7456 6.1488-9.1728 1.512-3.528 2.2176-7.2576 2.2176-11.189zm-15.12 0c0 7.56-6.1488 13.608-13.608 13.608s-13.608-6.048-13.608-13.608c0-7.4592 6.1488-13.608 13.608-13.608s13.608 6.1488 13.608 13.608z" stroke-width="0"/>
  <path id="path304048" style="font-variant-ligatures:normal" d="m423.57 374.41v24.797h15.12v-24.797c0-9.7776 7.9632-17.64 17.64-17.64v-15.12c-4.4352 0-8.6688 0.8064-12.701 2.52-3.9312 1.7136-7.4592 4.032-10.382 7.056-3.024 3.024-5.4432 6.552-7.056 10.382-1.7136 4.032-2.6208 8.3664-2.6208 12.802z" stroke-width="0"/>
  <path id="path304050" style="font-variant-ligatures:normal" d="m481.52 399.51c4.032 0 7.8624-0.8064 11.491-2.3184 3.4272-1.6128 6.552-3.7296 9.1728-6.552l-10.584-10.08c-2.6208 2.8224-6.2496 4.3344-10.08 4.3344-4.9392 0-9.1728-2.52-11.693-6.4512h40.118v-7.2576c0-7.6608-2.9232-14.717-8.3664-20.16-5.3424-5.3424-12.499-8.2656-20.059-8.2656s-14.717 2.9232-20.059 8.2656c-5.3424 5.4432-8.3664 12.499-8.3664 20.16 0 7.56 3.024 14.717 8.3664 20.059 5.3424 5.3424 12.499 8.2656 20.059 8.2656zm11.693-35.683h-23.386c2.52-3.8304 6.7536-6.4512 11.693-6.4512 4.9392 0 9.2736 2.6208 11.693 6.4512z" stroke-width="0"/>
  <path id="path304052" style="font-variant-ligatures:normal" d="m576.24 353.95v45.259h15.826v-78.624h-14.314l-24.394 42.84-24.394-42.84h-14.414v78.624h15.926v-45.158l17.842 30.744h9.9792z" stroke-width="0"/>
  <path id="path304054" style="font-variant-ligatures:normal" d="m601.16 346.09v53.122h15.221v-58.16z" stroke-width="0"/>
  <path id="path304056" style="font-variant-ligatures:normal" d="m624.26 382.38c1.4112 3.4272 3.528 6.4512 6.1488 9.1728 2.6208 2.6208 5.7456 4.6368 9.1728 6.1488 3.528 1.4112 7.2576 2.2176 11.189 2.2176 3.8304 0 7.56-0.8064 11.189-2.2176 3.3264-1.512 6.4512-3.528 9.072-6.1488 2.6208-2.7216 4.7376-5.7456 6.1488-9.1728 1.512-3.528 2.3184-7.3584 2.3184-11.189v-48.989l-15.12-5.04v28.728l-2.4192-1.2096c-3.6288-1.4112-7.3584-2.2176-11.189-2.2176-3.9312 0-7.6608 0.8064-11.189 2.2176-3.4272 1.512-6.552 3.528-9.1728 6.1488-2.6208 2.7216-4.7376 5.7456-6.1488 9.1728-1.512 3.528-2.2176 7.3584-2.2176 11.189 0 3.8304 0.7056 7.6608 2.2176 11.189zm26.51-24.797c7.4592 0 13.608 6.1488 13.608 13.608s-6.1488 13.608-13.608 13.608c-7.56 0-13.608-6.1488-13.608-13.608s6.048-13.608 13.608-13.608z" stroke-width="0"/>
  <path id="path304058" style="font-variant-ligatures:normal" d="m687.59 346.09v53.122h15.221v-58.16z" stroke-width="0"/>
  <path id="path304060" style="font-variant-ligatures:normal" d="m765.12 342.46h-15.12v3.1248c-3.9312-2.016-8.3664-3.1248-12.902-3.1248-3.9312 0-7.6608 0.8064-11.189 2.3184-3.4272 1.4112-6.552 3.528-9.1728 6.1488s-4.7376 5.6448-6.1488 9.072c-1.512 3.6288-2.2176 7.3584-2.2176 11.189 0 3.9312 0.7056 7.6608 2.2176 11.189 1.4112 3.4272 3.528 6.552 6.1488 9.1728s5.7456 4.7376 9.1728 6.1488c3.528 1.512 7.2576 2.2176 11.189 2.2176 4.4352 0 8.9712-1.008 12.902-3.024v2.3184h15.12zm-21.168 40.522c-2.1168 1.2096-4.4352 1.8144-6.8544 1.8144-7.56 0-13.608-6.048-13.608-13.608 0-7.4592 6.048-13.608 13.608-13.608 2.6208 0 5.1408 0.8064 7.3584 2.2176 2.1168 1.4112 3.8304 3.3264 4.9392 5.6448 0.8064 1.8144 1.2096 3.7296 1.2096 5.8464 0 2.3184-0.6048 4.7376-1.8144 6.7536-1.1088 2.016-2.8224 3.7296-4.8384 4.9392z" stroke-width="0"/>
 </g>

</g>
</svg>